<svg width="29" height="29" viewBox="0 0 29 29" fill="none" xmlns="http://www.w3.org/2000/svg">
<g clip-path="url(#clip0_2231_74)">
<path d="M10.3097 1.5857C7.51205 2.55622 5.09937 4.39831 3.42604 6.84139C1.75271 9.28447 0.906915 12.1998 1.0129 15.1591C1.11889 18.1184 2.17106 20.9657 4.01488 23.2828C5.8587 25.5999 8.39698 27.2647 11.2569 28.0326C13.5755 28.6308 16.0046 28.6571 18.3356 28.1091C20.4473 27.6348 22.3995 26.6202 24.0012 25.1648C25.6683 23.6036 26.8783 21.6177 27.5012 19.4204C28.1783 17.0309 28.2988 14.5181 27.8534 12.0748H14.8334V17.4757H22.3737C22.223 18.3371 21.9001 19.1593 21.4243 19.893C20.9484 20.6267 20.3294 21.2568 19.6044 21.7457C18.6836 22.3548 17.6457 22.7646 16.5572 22.9488C15.4655 23.1518 14.3457 23.1518 13.2541 22.9488C12.1476 22.7201 11.1009 22.2634 10.1806 21.6079C8.7022 20.5614 7.5921 19.0746 7.00875 17.3598C6.41553 15.6128 6.41553 13.7189 7.00875 11.9719C7.42399 10.7474 8.11044 9.63249 9.01687 8.71038C10.0542 7.63577 11.3674 6.86763 12.8125 6.49024C14.2576 6.11285 15.7788 6.1408 17.2091 6.57101C18.3264 6.91399 19.3481 7.51325 20.1928 8.32101C21.043 7.47518 21.8918 6.62716 22.7391 5.77695C23.1766 5.31976 23.6534 4.88445 24.0844 4.41632C22.795 3.21643 21.2815 2.28276 19.6306 1.66882C16.6243 0.577238 13.3349 0.547903 10.3097 1.5857Z" fill="white"/>
<path d="M10.3097 1.58566C13.3348 0.547162 16.6241 0.575725 19.6307 1.6666C21.2818 2.28471 22.7946 3.22287 24.0822 4.42722C23.6447 4.89535 23.1832 5.33285 22.7369 5.78785C21.8882 6.63514 21.0402 7.47952 20.1929 8.32097C19.3482 7.51321 18.3264 6.91396 17.2091 6.57097C15.7793 6.13925 14.2582 6.10969 12.8127 6.48554C11.3672 6.86138 10.0532 7.62811 9.01474 8.7016C8.10831 9.62371 7.42186 10.7386 7.00661 11.9632L2.47192 8.45222C4.09507 5.23345 6.90544 2.77134 10.3097 1.58566Z" fill="#E33629"/>
<path d="M1.2688 11.9303C1.51254 10.7224 1.91719 9.55258 2.47193 8.45221L7.00661 11.9719C6.4134 13.7188 6.4134 15.6128 7.00661 17.3597C5.49578 18.5264 3.98422 19.6989 2.47193 20.8772C1.08319 18.1129 0.659655 14.9633 1.2688 11.9303Z" fill="#F8BD00"/>
<path d="M14.8335 12.0726H27.8535C28.2989 14.5159 28.1784 17.0287 27.5013 19.4182C26.8784 21.6155 25.6684 23.6015 24.0013 25.1626C22.5379 24.0207 21.0679 22.8876 19.6044 21.7457C20.33 21.2563 20.9492 20.6255 21.4251 19.891C21.901 19.1565 22.2237 18.3335 22.3738 17.4713H14.8335C14.8313 15.6732 14.8335 13.8729 14.8335 12.0726Z" fill="#587DBD"/>
<path d="M2.46973 20.8772C3.98202 19.7106 5.49358 18.5381 7.00441 17.3597C7.58893 19.0752 8.70061 20.562 10.1807 21.6079C11.1038 22.2603 12.1528 22.7133 13.2607 22.9379C14.3524 23.1409 15.4721 23.1409 16.5638 22.9379C17.6523 22.7536 18.6902 22.3438 19.611 21.7347C21.0744 22.8766 22.5444 24.0097 24.0079 25.1516C22.4064 26.6079 20.4541 27.6232 18.3422 28.0982C16.0112 28.6462 13.5821 28.6199 11.2635 28.0216C9.4297 27.532 7.71683 26.6689 6.23223 25.4863C4.66086 24.2387 3.37744 22.6666 2.46973 20.8772Z" fill="#319F43"/>
</g>
<defs>
<clipPath id="clip0_2231_74">
<rect width="28" height="28" fill="white" transform="translate(0.555664 0.664734)"/>
</clipPath>
</defs>
</svg>
